<mxfile host="app.diagrams.net" modified="2022-10-31T12:53:59.022Z" agent="5.0 (X11; Linux x86_64) AppleWebKit/537.36 (KHTML, like Gecko) Chrome/102.0.5005.61 Safari/537.36" etag="8zys7kbrVlgzKhndWez4" version="20.4.2" type="github">
  <diagram id="OvRkjSHBnXe3sDOmPrdE" name="Page-1">
    <mxGraphModel dx="1755" dy="809" grid="1" gridSize="10" guides="1" tooltips="1" connect="1" arrows="1" fold="1" page="0" pageScale="1" pageWidth="850" pageHeight="1100" math="0" shadow="0">
      <root>
        <mxCell id="0" />
        <mxCell id="1" parent="0" />
        <mxCell id="UN092_8002CTT36fUEtt-8" style="edgeStyle=orthogonalEdgeStyle;rounded=0;orthogonalLoop=1;jettySize=auto;html=1;exitX=1;exitY=0.5;exitDx=0;exitDy=0;" edge="1" parent="1" source="UN092_8002CTT36fUEtt-1" target="UN092_8002CTT36fUEtt-6">
          <mxGeometry relative="1" as="geometry" />
        </mxCell>
        <mxCell id="UN092_8002CTT36fUEtt-1" value="Exercícios" style="rounded=0;whiteSpace=wrap;html=1;" vertex="1" parent="1">
          <mxGeometry x="290" y="210" width="120" height="60" as="geometry" />
        </mxCell>
        <mxCell id="UN092_8002CTT36fUEtt-79" style="edgeStyle=orthogonalEdgeStyle;rounded=0;orthogonalLoop=1;jettySize=auto;html=1;exitX=0.5;exitY=0;exitDx=0;exitDy=0;entryX=0.5;entryY=1;entryDx=0;entryDy=0;" edge="1" parent="1" source="UN092_8002CTT36fUEtt-2" target="UN092_8002CTT36fUEtt-64">
          <mxGeometry relative="1" as="geometry" />
        </mxCell>
        <mxCell id="UN092_8002CTT36fUEtt-80" style="edgeStyle=orthogonalEdgeStyle;rounded=0;orthogonalLoop=1;jettySize=auto;html=1;exitX=1;exitY=0.5;exitDx=0;exitDy=0;entryX=0;entryY=0.5;entryDx=0;entryDy=0;" edge="1" parent="1" source="UN092_8002CTT36fUEtt-2" target="UN092_8002CTT36fUEtt-38">
          <mxGeometry relative="1" as="geometry" />
        </mxCell>
        <mxCell id="UN092_8002CTT36fUEtt-2" value="Utilizadores" style="rounded=0;whiteSpace=wrap;html=1;" vertex="1" parent="1">
          <mxGeometry x="110" y="350" width="120" height="60" as="geometry" />
        </mxCell>
        <mxCell id="UN092_8002CTT36fUEtt-3" value="Equipamentos" style="rounded=0;whiteSpace=wrap;html=1;" vertex="1" parent="1">
          <mxGeometry x="575" y="210" width="120" height="60" as="geometry" />
        </mxCell>
        <mxCell id="UN092_8002CTT36fUEtt-4" value="Dificuldade" style="rounded=0;whiteSpace=wrap;html=1;" vertex="1" parent="1">
          <mxGeometry x="540" y="140" width="120" height="60" as="geometry" />
        </mxCell>
        <mxCell id="UN092_8002CTT36fUEtt-5" value="Músculo" style="rounded=0;whiteSpace=wrap;html=1;" vertex="1" parent="1">
          <mxGeometry x="540" y="280" width="120" height="60" as="geometry" />
        </mxCell>
        <mxCell id="UN092_8002CTT36fUEtt-7" style="edgeStyle=orthogonalEdgeStyle;rounded=0;orthogonalLoop=1;jettySize=auto;html=1;exitX=1;exitY=0.5;exitDx=0;exitDy=0;" edge="1" parent="1" source="UN092_8002CTT36fUEtt-6" target="UN092_8002CTT36fUEtt-3">
          <mxGeometry relative="1" as="geometry" />
        </mxCell>
        <mxCell id="UN092_8002CTT36fUEtt-9" style="edgeStyle=orthogonalEdgeStyle;rounded=0;orthogonalLoop=1;jettySize=auto;html=1;exitX=1;exitY=1;exitDx=0;exitDy=0;entryX=0;entryY=0.5;entryDx=0;entryDy=0;" edge="1" parent="1" source="UN092_8002CTT36fUEtt-6" target="UN092_8002CTT36fUEtt-5">
          <mxGeometry relative="1" as="geometry" />
        </mxCell>
        <mxCell id="UN092_8002CTT36fUEtt-10" style="edgeStyle=orthogonalEdgeStyle;rounded=0;orthogonalLoop=1;jettySize=auto;html=1;exitX=1;exitY=0;exitDx=0;exitDy=0;entryX=0;entryY=0.5;entryDx=0;entryDy=0;" edge="1" parent="1" source="UN092_8002CTT36fUEtt-6" target="UN092_8002CTT36fUEtt-4">
          <mxGeometry relative="1" as="geometry" />
        </mxCell>
        <mxCell id="UN092_8002CTT36fUEtt-6" value="PertenceA" style="rhombus;whiteSpace=wrap;html=1;" vertex="1" parent="1">
          <mxGeometry x="440" y="195" width="100" height="90" as="geometry" />
        </mxCell>
        <mxCell id="UN092_8002CTT36fUEtt-61" style="edgeStyle=orthogonalEdgeStyle;rounded=0;orthogonalLoop=1;jettySize=auto;html=1;exitX=0.5;exitY=1;exitDx=0;exitDy=0;" edge="1" parent="1" source="UN092_8002CTT36fUEtt-13" target="UN092_8002CTT36fUEtt-1">
          <mxGeometry relative="1" as="geometry">
            <Array as="points">
              <mxPoint x="360" y="200" />
              <mxPoint x="360" y="200" />
            </Array>
          </mxGeometry>
        </mxCell>
        <mxCell id="UN092_8002CTT36fUEtt-13" value="nome" style="ellipse;whiteSpace=wrap;html=1;" vertex="1" parent="1">
          <mxGeometry x="310" y="130" width="100" height="50" as="geometry" />
        </mxCell>
        <mxCell id="UN092_8002CTT36fUEtt-28" style="edgeStyle=orthogonalEdgeStyle;rounded=0;orthogonalLoop=1;jettySize=auto;html=1;exitX=0.5;exitY=1;exitDx=0;exitDy=0;entryX=0.5;entryY=0;entryDx=0;entryDy=0;" edge="1" parent="1" source="UN092_8002CTT36fUEtt-15" target="UN092_8002CTT36fUEtt-4">
          <mxGeometry relative="1" as="geometry" />
        </mxCell>
        <mxCell id="UN092_8002CTT36fUEtt-15" value="nome" style="ellipse;whiteSpace=wrap;html=1;" vertex="1" parent="1">
          <mxGeometry x="550" y="70" width="100" height="50" as="geometry" />
        </mxCell>
        <mxCell id="UN092_8002CTT36fUEtt-60" style="edgeStyle=orthogonalEdgeStyle;rounded=0;orthogonalLoop=1;jettySize=auto;html=1;exitX=0;exitY=0.5;exitDx=0;exitDy=0;entryX=1;entryY=0.5;entryDx=0;entryDy=0;" edge="1" parent="1" target="UN092_8002CTT36fUEtt-3">
          <mxGeometry relative="1" as="geometry">
            <mxPoint x="730" y="240" as="sourcePoint" />
          </mxGeometry>
        </mxCell>
        <mxCell id="UN092_8002CTT36fUEtt-17" value="nome" style="ellipse;whiteSpace=wrap;html=1;" vertex="1" parent="1">
          <mxGeometry x="730" y="215" width="100" height="50" as="geometry" />
        </mxCell>
        <mxCell id="UN092_8002CTT36fUEtt-30" style="edgeStyle=orthogonalEdgeStyle;rounded=0;orthogonalLoop=1;jettySize=auto;html=1;exitX=0;exitY=0.5;exitDx=0;exitDy=0;" edge="1" parent="1" source="UN092_8002CTT36fUEtt-18" target="UN092_8002CTT36fUEtt-5">
          <mxGeometry relative="1" as="geometry" />
        </mxCell>
        <mxCell id="UN092_8002CTT36fUEtt-18" value="nome" style="ellipse;whiteSpace=wrap;html=1;" vertex="1" parent="1">
          <mxGeometry x="690" y="285" width="100" height="50" as="geometry" />
        </mxCell>
        <mxCell id="UN092_8002CTT36fUEtt-21" value="Alimentos" style="rounded=0;whiteSpace=wrap;html=1;" vertex="1" parent="1">
          <mxGeometry x="280" y="460" width="120" height="60" as="geometry" />
        </mxCell>
        <mxCell id="UN092_8002CTT36fUEtt-52" style="edgeStyle=orthogonalEdgeStyle;rounded=0;orthogonalLoop=1;jettySize=auto;html=1;exitX=0;exitY=0;exitDx=0;exitDy=0;entryX=0.817;entryY=0.983;entryDx=0;entryDy=0;entryPerimeter=0;" edge="1" parent="1" source="UN092_8002CTT36fUEtt-22" target="UN092_8002CTT36fUEtt-21">
          <mxGeometry relative="1" as="geometry" />
        </mxCell>
        <mxCell id="UN092_8002CTT36fUEtt-22" value="nome" style="ellipse;whiteSpace=wrap;html=1;" vertex="1" parent="1">
          <mxGeometry x="360" y="530" width="90" height="50" as="geometry" />
        </mxCell>
        <mxCell id="UN092_8002CTT36fUEtt-53" style="edgeStyle=orthogonalEdgeStyle;rounded=0;orthogonalLoop=1;jettySize=auto;html=1;exitX=1;exitY=0;exitDx=0;exitDy=0;" edge="1" parent="1">
          <mxGeometry relative="1" as="geometry">
            <mxPoint x="310" y="530" as="targetPoint" />
            <mxPoint x="285.35533905932743" y="557.3223304703363" as="sourcePoint" />
          </mxGeometry>
        </mxCell>
        <mxCell id="UN092_8002CTT36fUEtt-23" value="proteína" style="ellipse;whiteSpace=wrap;html=1;" vertex="1" parent="1">
          <mxGeometry x="190" y="530" width="100" height="50" as="geometry" />
        </mxCell>
        <mxCell id="UN092_8002CTT36fUEtt-50" style="edgeStyle=orthogonalEdgeStyle;rounded=0;orthogonalLoop=1;jettySize=auto;html=1;exitX=0.5;exitY=0;exitDx=0;exitDy=0;entryX=0.392;entryY=1.083;entryDx=0;entryDy=0;entryPerimeter=0;" edge="1" parent="1" source="UN092_8002CTT36fUEtt-24" target="UN092_8002CTT36fUEtt-21">
          <mxGeometry relative="1" as="geometry" />
        </mxCell>
        <mxCell id="UN092_8002CTT36fUEtt-24" value="carbs" style="ellipse;whiteSpace=wrap;html=1;" vertex="1" parent="1">
          <mxGeometry x="280" y="560" width="100" height="50" as="geometry" />
        </mxCell>
        <mxCell id="UN092_8002CTT36fUEtt-55" style="edgeStyle=orthogonalEdgeStyle;rounded=0;orthogonalLoop=1;jettySize=auto;html=1;exitX=1;exitY=0;exitDx=0;exitDy=0;entryX=0;entryY=0.5;entryDx=0;entryDy=0;" edge="1" parent="1" source="UN092_8002CTT36fUEtt-25" target="UN092_8002CTT36fUEtt-21">
          <mxGeometry relative="1" as="geometry" />
        </mxCell>
        <mxCell id="UN092_8002CTT36fUEtt-25" value="gordura" style="ellipse;whiteSpace=wrap;html=1;" vertex="1" parent="1">
          <mxGeometry x="140" y="475" width="100" height="50" as="geometry" />
        </mxCell>
        <mxCell id="UN092_8002CTT36fUEtt-41" style="edgeStyle=orthogonalEdgeStyle;rounded=0;orthogonalLoop=1;jettySize=auto;html=1;exitX=0.5;exitY=0;exitDx=0;exitDy=0;entryX=0.5;entryY=1;entryDx=0;entryDy=0;" edge="1" parent="1" source="UN092_8002CTT36fUEtt-38" target="UN092_8002CTT36fUEtt-1">
          <mxGeometry relative="1" as="geometry">
            <mxPoint x="350" y="280" as="targetPoint" />
          </mxGeometry>
        </mxCell>
        <mxCell id="UN092_8002CTT36fUEtt-51" style="edgeStyle=orthogonalEdgeStyle;rounded=0;orthogonalLoop=1;jettySize=auto;html=1;exitX=0.5;exitY=1;exitDx=0;exitDy=0;entryX=0.583;entryY=-0.033;entryDx=0;entryDy=0;entryPerimeter=0;" edge="1" parent="1" source="UN092_8002CTT36fUEtt-38" target="UN092_8002CTT36fUEtt-21">
          <mxGeometry relative="1" as="geometry" />
        </mxCell>
        <mxCell id="UN092_8002CTT36fUEtt-99" style="edgeStyle=orthogonalEdgeStyle;rounded=0;orthogonalLoop=1;jettySize=auto;html=1;exitX=1;exitY=0.5;exitDx=0;exitDy=0;entryX=0;entryY=0.5;entryDx=0;entryDy=0;" edge="1" parent="1" source="UN092_8002CTT36fUEtt-38" target="UN092_8002CTT36fUEtt-98">
          <mxGeometry relative="1" as="geometry" />
        </mxCell>
        <mxCell id="UN092_8002CTT36fUEtt-38" value="Pesquisa" style="rhombus;whiteSpace=wrap;html=1;" vertex="1" parent="1">
          <mxGeometry x="300" y="335" width="100" height="90" as="geometry" />
        </mxCell>
        <mxCell id="UN092_8002CTT36fUEtt-84" style="edgeStyle=orthogonalEdgeStyle;rounded=0;orthogonalLoop=1;jettySize=auto;html=1;exitX=1;exitY=0.5;exitDx=0;exitDy=0;entryX=0;entryY=0.75;entryDx=0;entryDy=0;" edge="1" parent="1" source="UN092_8002CTT36fUEtt-46" target="UN092_8002CTT36fUEtt-2">
          <mxGeometry relative="1" as="geometry" />
        </mxCell>
        <mxCell id="UN092_8002CTT36fUEtt-46" value="data_nascimento" style="ellipse;whiteSpace=wrap;html=1;" vertex="1" parent="1">
          <mxGeometry x="-60" y="365" width="100" height="50" as="geometry" />
        </mxCell>
        <mxCell id="UN092_8002CTT36fUEtt-83" style="edgeStyle=orthogonalEdgeStyle;rounded=0;orthogonalLoop=1;jettySize=auto;html=1;exitX=1;exitY=0.5;exitDx=0;exitDy=0;entryX=0;entryY=0.15;entryDx=0;entryDy=0;entryPerimeter=0;" edge="1" parent="1" source="UN092_8002CTT36fUEtt-48" target="UN092_8002CTT36fUEtt-2">
          <mxGeometry relative="1" as="geometry" />
        </mxCell>
        <mxCell id="UN092_8002CTT36fUEtt-48" value="email" style="ellipse;whiteSpace=wrap;html=1;" vertex="1" parent="1">
          <mxGeometry x="-40" y="310" width="90" height="50" as="geometry" />
        </mxCell>
        <mxCell id="UN092_8002CTT36fUEtt-81" style="edgeStyle=orthogonalEdgeStyle;rounded=0;orthogonalLoop=1;jettySize=auto;html=1;exitX=1;exitY=1;exitDx=0;exitDy=0;entryX=0.25;entryY=0;entryDx=0;entryDy=0;" edge="1" parent="1" source="UN092_8002CTT36fUEtt-56" target="UN092_8002CTT36fUEtt-2">
          <mxGeometry relative="1" as="geometry" />
        </mxCell>
        <mxCell id="UN092_8002CTT36fUEtt-56" value="password" style="ellipse;whiteSpace=wrap;html=1;" vertex="1" parent="1">
          <mxGeometry x="10" y="260" width="90" height="50" as="geometry" />
        </mxCell>
        <mxCell id="UN092_8002CTT36fUEtt-69" style="edgeStyle=orthogonalEdgeStyle;rounded=0;orthogonalLoop=1;jettySize=auto;html=1;exitX=0.75;exitY=1;exitDx=0;exitDy=0;entryX=0;entryY=0;entryDx=0;entryDy=0;" edge="1" parent="1" source="UN092_8002CTT36fUEtt-59" target="UN092_8002CTT36fUEtt-68">
          <mxGeometry relative="1" as="geometry" />
        </mxCell>
        <mxCell id="UN092_8002CTT36fUEtt-94" style="edgeStyle=orthogonalEdgeStyle;rounded=0;orthogonalLoop=1;jettySize=auto;html=1;exitX=0.5;exitY=1;exitDx=0;exitDy=0;entryX=0;entryY=0;entryDx=0;entryDy=0;" edge="1" parent="1" source="UN092_8002CTT36fUEtt-59" target="UN092_8002CTT36fUEtt-93">
          <mxGeometry relative="1" as="geometry" />
        </mxCell>
        <mxCell id="UN092_8002CTT36fUEtt-59" value="Treino" style="rounded=0;whiteSpace=wrap;html=1;" vertex="1" parent="1">
          <mxGeometry x="80" y="90" width="120" height="60" as="geometry" />
        </mxCell>
        <mxCell id="UN092_8002CTT36fUEtt-85" style="edgeStyle=orthogonalEdgeStyle;rounded=0;orthogonalLoop=1;jettySize=auto;html=1;exitX=1;exitY=0.5;exitDx=0;exitDy=0;entryX=0.25;entryY=1;entryDx=0;entryDy=0;" edge="1" parent="1" source="UN092_8002CTT36fUEtt-44" target="UN092_8002CTT36fUEtt-2">
          <mxGeometry relative="1" as="geometry" />
        </mxCell>
        <mxCell id="UN092_8002CTT36fUEtt-44" value="nome" style="ellipse;whiteSpace=wrap;html=1;" vertex="1" parent="1">
          <mxGeometry y="415" width="90" height="50" as="geometry" />
        </mxCell>
        <mxCell id="UN092_8002CTT36fUEtt-96" style="edgeStyle=orthogonalEdgeStyle;rounded=0;orthogonalLoop=1;jettySize=auto;html=1;exitX=0.5;exitY=0;exitDx=0;exitDy=0;entryX=0.25;entryY=1;entryDx=0;entryDy=0;" edge="1" parent="1" source="UN092_8002CTT36fUEtt-64" target="UN092_8002CTT36fUEtt-59">
          <mxGeometry relative="1" as="geometry" />
        </mxCell>
        <mxCell id="UN092_8002CTT36fUEtt-64" value="Criar" style="rhombus;whiteSpace=wrap;html=1;" vertex="1" parent="1">
          <mxGeometry x="70" y="170" width="85" height="70" as="geometry" />
        </mxCell>
        <mxCell id="UN092_8002CTT36fUEtt-70" style="edgeStyle=orthogonalEdgeStyle;rounded=0;orthogonalLoop=1;jettySize=auto;html=1;exitX=1;exitY=0.5;exitDx=0;exitDy=0;" edge="1" parent="1" source="UN092_8002CTT36fUEtt-68">
          <mxGeometry relative="1" as="geometry">
            <mxPoint x="290" y="240" as="targetPoint" />
            <Array as="points">
              <mxPoint x="250" y="205" />
              <mxPoint x="250" y="240" />
            </Array>
          </mxGeometry>
        </mxCell>
        <mxCell id="UN092_8002CTT36fUEtt-68" value="PertenceA" style="rhombus;whiteSpace=wrap;html=1;" vertex="1" parent="1">
          <mxGeometry x="192.5" y="160" width="95" height="80" as="geometry" />
        </mxCell>
        <mxCell id="UN092_8002CTT36fUEtt-77" style="edgeStyle=orthogonalEdgeStyle;rounded=0;orthogonalLoop=1;jettySize=auto;html=1;exitX=0.5;exitY=1;exitDx=0;exitDy=0;entryX=0;entryY=0.25;entryDx=0;entryDy=0;" edge="1" parent="1" source="UN092_8002CTT36fUEtt-72" target="UN092_8002CTT36fUEtt-59">
          <mxGeometry relative="1" as="geometry" />
        </mxCell>
        <mxCell id="UN092_8002CTT36fUEtt-72" value="reps" style="ellipse;whiteSpace=wrap;html=1;" vertex="1" parent="1">
          <mxGeometry y="30" width="90" height="50" as="geometry" />
        </mxCell>
        <mxCell id="UN092_8002CTT36fUEtt-76" style="edgeStyle=orthogonalEdgeStyle;rounded=0;orthogonalLoop=1;jettySize=auto;html=1;exitX=0.5;exitY=1;exitDx=0;exitDy=0;entryX=0.5;entryY=0;entryDx=0;entryDy=0;" edge="1" parent="1" source="UN092_8002CTT36fUEtt-73" target="UN092_8002CTT36fUEtt-59">
          <mxGeometry relative="1" as="geometry" />
        </mxCell>
        <mxCell id="UN092_8002CTT36fUEtt-73" value="carga" style="ellipse;whiteSpace=wrap;html=1;" vertex="1" parent="1">
          <mxGeometry x="90" y="20" width="90" height="50" as="geometry" />
        </mxCell>
        <mxCell id="UN092_8002CTT36fUEtt-75" style="edgeStyle=orthogonalEdgeStyle;rounded=0;orthogonalLoop=1;jettySize=auto;html=1;exitX=0;exitY=1;exitDx=0;exitDy=0;entryX=0.75;entryY=0;entryDx=0;entryDy=0;" edge="1" parent="1" source="UN092_8002CTT36fUEtt-74" target="UN092_8002CTT36fUEtt-59">
          <mxGeometry relative="1" as="geometry" />
        </mxCell>
        <mxCell id="UN092_8002CTT36fUEtt-74" value="sets" style="ellipse;whiteSpace=wrap;html=1;" vertex="1" parent="1">
          <mxGeometry x="190" y="30" width="90" height="50" as="geometry" />
        </mxCell>
        <mxCell id="UN092_8002CTT36fUEtt-92" style="edgeStyle=orthogonalEdgeStyle;rounded=0;orthogonalLoop=1;jettySize=auto;html=1;exitX=0;exitY=1;exitDx=0;exitDy=0;entryX=1;entryY=0.5;entryDx=0;entryDy=0;" edge="1" parent="1" source="UN092_8002CTT36fUEtt-88" target="UN092_8002CTT36fUEtt-59">
          <mxGeometry relative="1" as="geometry" />
        </mxCell>
        <mxCell id="UN092_8002CTT36fUEtt-88" value="feito" style="ellipse;whiteSpace=wrap;html=1;" vertex="1" parent="1">
          <mxGeometry x="230" y="70" width="90" height="40" as="geometry" />
        </mxCell>
        <mxCell id="UN092_8002CTT36fUEtt-95" style="edgeStyle=orthogonalEdgeStyle;rounded=0;orthogonalLoop=1;jettySize=auto;html=1;exitX=1;exitY=1;exitDx=0;exitDy=0;entryX=0;entryY=1;entryDx=0;entryDy=0;" edge="1" parent="1" source="UN092_8002CTT36fUEtt-93" target="UN092_8002CTT36fUEtt-1">
          <mxGeometry relative="1" as="geometry" />
        </mxCell>
        <mxCell id="UN092_8002CTT36fUEtt-93" value="Seleciona" style="rhombus;whiteSpace=wrap;html=1;" vertex="1" parent="1">
          <mxGeometry x="140" y="210" width="90" height="80" as="geometry" />
        </mxCell>
        <mxCell id="UN092_8002CTT36fUEtt-101" style="edgeStyle=orthogonalEdgeStyle;rounded=0;orthogonalLoop=1;jettySize=auto;html=1;exitX=1;exitY=0.5;exitDx=0;exitDy=0;" edge="1" parent="1" source="UN092_8002CTT36fUEtt-98" target="UN092_8002CTT36fUEtt-3">
          <mxGeometry relative="1" as="geometry" />
        </mxCell>
        <mxCell id="UN092_8002CTT36fUEtt-104" style="edgeStyle=orthogonalEdgeStyle;rounded=0;orthogonalLoop=1;jettySize=auto;html=1;exitX=1;exitY=0;exitDx=0;exitDy=0;entryX=0.5;entryY=1;entryDx=0;entryDy=0;" edge="1" parent="1" source="UN092_8002CTT36fUEtt-98" target="UN092_8002CTT36fUEtt-5">
          <mxGeometry relative="1" as="geometry" />
        </mxCell>
        <mxCell id="UN092_8002CTT36fUEtt-106" style="edgeStyle=orthogonalEdgeStyle;rounded=0;orthogonalLoop=1;jettySize=auto;html=1;exitX=1;exitY=1;exitDx=0;exitDy=0;entryX=1;entryY=0.5;entryDx=0;entryDy=0;" edge="1" parent="1" source="UN092_8002CTT36fUEtt-98" target="UN092_8002CTT36fUEtt-4">
          <mxGeometry relative="1" as="geometry">
            <mxPoint x="750" y="160" as="targetPoint" />
            <Array as="points">
              <mxPoint x="770" y="463" />
              <mxPoint x="770" y="170" />
            </Array>
          </mxGeometry>
        </mxCell>
        <mxCell id="UN092_8002CTT36fUEtt-98" value="Filtrar" style="rhombus;whiteSpace=wrap;html=1;" vertex="1" parent="1">
          <mxGeometry x="470" y="395" width="100" height="90" as="geometry" />
        </mxCell>
      </root>
    </mxGraphModel>
  </diagram>
</mxfile>
